<svg width="50" height="50" viewBox="0 0 50 50" fill="none" xmlns="http://www.w3.org/2000/svg">
<g clip-path="url(#clip0_543_39)">
<path d="M10.9375 0C11.3519 0 11.7493 0.16462 12.0424 0.457646C12.3354 0.750671 12.5 1.1481 12.5 1.5625V3.125H37.5V1.5625C37.5 1.1481 37.6646 0.750671 37.9576 0.457646C38.2507 0.16462 38.6481 0 39.0625 0C39.4769 0 39.8743 0.16462 40.1674 0.457646C40.4604 0.750671 40.625 1.1481 40.625 1.5625V3.125H43.75C45.4076 3.125 46.9973 3.78348 48.1694 4.95558C49.3415 6.12768 50 7.7174 50 9.375V43.75C50 45.4076 49.3415 46.9973 48.1694 48.1694C46.9973 49.3415 45.4076 50 43.75 50H6.25C4.5924 50 3.00269 49.3415 1.83058 48.1694C0.65848 46.9973 0 45.4076 0 43.75V9.375C0 7.7174 0.65848 6.12768 1.83058 4.95558C3.00269 3.78348 4.5924 3.125 6.25 3.125H9.375V1.5625C9.375 1.1481 9.53962 0.750671 9.83265 0.457646C10.1257 0.16462 10.5231 0 10.9375 0ZM42.0438 9.375H7.95312C7.01562 9.375 6.25 10.075 6.25 10.9375V14.0625C6.25 14.925 7.0125 15.625 7.95312 15.625H42.0469C42.9844 15.625 43.75 14.925 43.75 14.0625V10.9375C43.75 10.075 42.9875 9.375 42.0438 9.375ZM26.5625 21.875C26.1481 21.875 25.7507 22.0396 25.4576 22.3326C25.1646 22.6257 25 23.0231 25 23.4375V26.5625C25 26.9769 25.1646 27.3743 25.4576 27.6674C25.7507 27.9604 26.1481 28.125 26.5625 28.125H29.6875C30.1019 28.125 30.4993 27.9604 30.7924 27.6674C31.0854 27.3743 31.25 26.9769 31.25 26.5625V23.4375C31.25 23.0231 31.0854 22.6257 30.7924 22.3326C30.4993 22.0396 30.1019 21.875 29.6875 21.875H26.5625ZM35.9375 21.875C35.5231 21.875 35.1257 22.0396 34.8326 22.3326C34.5396 22.6257 34.375 23.0231 34.375 23.4375V26.5625C34.375 26.9769 34.5396 27.3743 34.8326 27.6674C35.1257 27.9604 35.5231 28.125 35.9375 28.125H39.0625C39.4769 28.125 39.8743 27.9604 40.1674 27.6674C40.4604 27.3743 40.625 26.9769 40.625 26.5625V23.4375C40.625 23.0231 40.4604 22.6257 40.1674 22.3326C39.8743 22.0396 39.4769 21.875 39.0625 21.875H35.9375ZM9.375 32.8125V35.9375C9.375 36.3519 9.53962 36.7493 9.83265 37.0424C10.1257 37.3354 10.5231 37.5 10.9375 37.5H14.0625C14.4769 37.5 14.8743 37.3354 15.1674 37.0424C15.4604 36.7493 15.625 36.3519 15.625 35.9375V32.8125C15.625 32.3981 15.4604 32.0007 15.1674 31.7076C14.8743 31.4146 14.4769 31.25 14.0625 31.25H10.9375C10.5231 31.25 10.1257 31.4146 9.83265 31.7076C9.53962 32.0007 9.375 32.3981 9.375 32.8125ZM20.3125 31.25C19.8981 31.25 19.5007 31.4146 19.2076 31.7076C18.9146 32.0007 18.75 32.3981 18.75 32.8125V35.9375C18.75 36.3519 18.9146 36.7493 19.2076 37.0424C19.5007 37.3354 19.8981 37.5 20.3125 37.5H23.4375C23.8519 37.5 24.2493 37.3354 24.5424 37.0424C24.8354 36.7493 25 36.3519 25 35.9375V32.8125C25 32.3981 24.8354 32.0007 24.5424 31.7076C24.2493 31.4146 23.8519 31.25 23.4375 31.25H20.3125Z" fill="#2631FF"/>
</g>
<defs>
<clipPath id="clip0_543_39">
<rect width="50" height="50" fill="white"/>
</clipPath>
</defs>
</svg>
